<svg width="25" height="24" viewBox="0 0 25 24" fill="none" xmlns="http://www.w3.org/2000/svg">
<path d="M9.76016 10.87C9.66016 10.86 9.54016 10.86 9.43016 10.87C7.05016 10.79 5.16016 8.84 5.16016 6.44C5.16016 3.99 7.14016 2 9.60016 2C12.0502 2 14.0402 3.99 14.0402 6.44C14.0302 8.84 12.1402 10.79 9.76016 10.87Z" stroke="#0E48A1" stroke-width="1.5" stroke-linecap="round" stroke-linejoin="round"/>
<path d="M17.0101 4C18.9501 4 20.5101 5.57 20.5101 7.5C20.5101 9.39 19.0101 10.93 17.1401 11C17.0601 10.99 16.9701 10.99 16.8801 11" stroke="#0E48A1" stroke-width="1.5" stroke-linecap="round" stroke-linejoin="round"/>
<path d="M4.76007 14.56C2.34007 16.18 2.34007 18.82 4.76007 20.43C7.51007 22.27 12.0201 22.27 14.7701 20.43C17.1901 18.81 17.1901 16.17 14.7701 14.56C12.0301 12.73 7.52007 12.73 4.76007 14.56Z" stroke="#0E48A1" stroke-width="1.5" stroke-linecap="round" stroke-linejoin="round"/>
<path d="M18.9402 20C19.6602 19.85 20.3402 19.56 20.9002 19.13C22.4602 17.96 22.4602 16.03 20.9002 14.86C20.3502 14.44 19.6802 14.16 18.9702 14" stroke="#0E48A1" stroke-width="1.5" stroke-linecap="round" stroke-linejoin="round"/>
</svg>
