<svg width="25" height="24" viewBox="0 0 25 24" fill="none" xmlns="http://www.w3.org/2000/svg">
<path d="M11.1515 16.8604V18.8904C11.1515 20.6104 9.55148 22.0004 7.58148 22.0004C5.61148 22.0004 4.00146 20.6104 4.00146 18.8904V16.8604C4.00146 18.5804 5.60148 19.8004 7.58148 19.8004C9.55148 19.8004 11.1515 18.5704 11.1515 16.8604Z" stroke="#76A409" stroke-width="1.5" stroke-linecap="round" stroke-linejoin="round"/>
<path d="M11.15 14.1097C11.15 14.6097 11.01 15.0697 10.77 15.4697C10.18 16.4397 8.96995 17.0497 7.56995 17.0497C6.16995 17.0497 4.95993 16.4297 4.36993 15.4697C4.12993 15.0697 3.98999 14.6097 3.98999 14.1097C3.98999 13.2497 4.38997 12.4797 5.02997 11.9197C5.67997 11.3497 6.56994 11.0098 7.55994 11.0098C8.54994 11.0098 9.43997 11.3597 10.09 11.9197C10.75 12.4697 11.15 13.2497 11.15 14.1097Z" stroke="#76A409" stroke-width="1.5" stroke-linecap="round" stroke-linejoin="round"/>
<path d="M11.1515 14.11V16.86C11.1515 18.58 9.55148 19.8 7.58148 19.8C5.61148 19.8 4.00146 18.57 4.00146 16.86V14.11C4.00146 12.39 5.60148 11 7.58148 11C8.57148 11 9.46151 11.35 10.1115 11.91C10.7515 12.47 11.1515 13.25 11.1515 14.11Z" stroke="#76A409" stroke-width="1.5" stroke-linecap="round" stroke-linejoin="round"/>
<path d="M22.3999 10.9702V13.0302C22.3999 13.5802 21.9599 14.0302 21.3999 14.0502H19.4398C18.3598 14.0502 17.3699 13.2602 17.2799 12.1802C17.2199 11.5502 17.4599 10.9602 17.8799 10.5502C18.2499 10.1702 18.7599 9.9502 19.3199 9.9502H21.3999C21.9599 9.9702 22.3999 10.4202 22.3999 10.9702Z" stroke="#76A409" stroke-width="1.5" stroke-linecap="round" stroke-linejoin="round"/>
<path d="M2.3999 10.5V8.5C2.3999 5.78 4.0399 3.88 6.5899 3.56C6.8499 3.52 7.1199 3.5 7.3999 3.5H16.3999C16.6599 3.5 16.9099 3.50999 17.1499 3.54999C19.7299 3.84999 21.3999 5.76 21.3999 8.5V9.95001H19.3199C18.7599 9.95001 18.2499 10.17 17.8799 10.55C17.4599 10.96 17.2199 11.55 17.2799 12.18C17.3699 13.26 18.3599 14.05 19.4399 14.05H21.3999V15.5C21.3999 18.5 19.3999 20.5 16.3999 20.5H13.8999" stroke="#76A409" stroke-width="1.5" stroke-linecap="round" stroke-linejoin="round"/>
</svg>
