<svg width="128" height="124" viewBox="0 0 128 124" fill="none" xmlns="http://www.w3.org/2000/svg">
<g filter="url(#filter0_f_152_13754)">
<mask id="mask0_152_13754" style="mask-type:luminance" maskUnits="userSpaceOnUse" x="26" y="20" width="55" height="49">
<path d="M35.2772 68.3367L26.3472 58.7267C30.7692 52.2291 35.864 46.2158 41.5472 40.7867C51.2472 31.4467 61.7272 24.3367 71.2472 20.1367C74.2405 23.3501 77.2405 26.5567 80.2472 29.7567C70.7272 33.9667 60.2472 41.0667 50.5472 50.4167C44.8408 55.8361 39.7224 61.8427 35.2772 68.3367Z" fill="white"/>
</mask>
<g mask="url(#mask0_152_13754)">
<path d="M72.6672 19.5068L81.6672 29.1368C80.9972 29.4068 80.3272 29.6968 79.6672 30.0068L70.7172 20.3868C71.3872 20.0768 72.0672 19.7868 72.7172 19.5068H72.6672Z" fill="#FED311"/>
<path d="M70.6571 20.3867L79.6071 30.0067L77.8171 30.8467L68.8171 21.2267C69.4171 20.9367 70.0171 20.6467 70.6171 20.3867H70.6571Z" fill="#FED411"/>
<path d="M68.8573 21.2266L77.8573 30.8466L76.0073 31.7666L67.0573 22.1466C67.6673 21.8266 68.2872 21.5166 68.8972 21.2266H68.8573Z" fill="#FED511"/>
<path d="M67.0172 22.1467L75.9672 31.7267C75.3472 32.0567 74.7172 32.3867 74.0872 32.7267L65.0872 23.0967C65.7172 22.7567 66.3472 22.4167 66.9772 22.0967L67.0172 22.1467Z" fill="#FED611"/>
<path d="M65.1273 23.1465L74.1273 32.7765C73.5373 33.0965 72.9373 33.4265 72.3473 33.7765L63.3473 24.1465L65.1273 23.1465Z" fill="#FED711"/>
<path d="M63.3471 24.1465L72.3471 33.7765L70.5671 34.7765L61.6171 25.1465C62.2037 24.7865 62.7938 24.4532 63.3871 24.1465H63.3471Z" fill="#FED811"/>
<path d="M61.5771 25.1973L70.5271 34.8273C69.9804 35.1606 69.4304 35.4939 68.8771 35.8273L59.8771 26.2073L61.5371 25.2073L61.5771 25.1973Z" fill="#FED911"/>
<path d="M59.9172 26.2266L68.9172 35.8466C68.3572 36.2066 67.8072 36.5566 67.2572 36.9266L58.2572 27.3066C58.8072 26.9366 59.3672 26.5766 59.9172 26.2266Z" fill="#FEDA11"/>
<path d="M58.2571 27.3066L67.2571 36.9266L65.6871 37.9866L56.6871 28.3566C57.2071 27.9966 57.7371 27.6466 58.2571 27.3566V27.3066Z" fill="#FEDB11"/>
<path d="M56.6871 28.3564L65.6871 37.9865C65.1571 38.3464 64.6371 38.7064 64.1171 39.0864L55.1171 29.4565L56.6871 28.3564Z" fill="#FEDC11"/>
<path d="M55.1172 29.457L64.1172 39.087C63.5972 39.447 63.1172 39.827 62.5672 40.207L53.6172 30.577L55.1572 29.457H55.1172Z" fill="#FEDD11"/>
<path d="M53.5772 30.5771L62.5272 40.2072C62.0172 40.5772 61.5272 40.9671 60.9972 41.3571L51.9972 31.7372C52.5072 31.3472 52.9972 30.9571 53.5372 30.5771H53.5772Z" fill="#FEDE12"/>
<path d="M52.0371 31.7266L61.0371 41.3466L59.4471 42.5866L50.4471 32.9566C50.9738 32.5366 51.5038 32.1266 52.0371 31.7266Z" fill="#FEDF12"/>
<path d="M50.4472 32.9668L59.4472 42.5968C58.9072 43.0168 58.3772 43.4568 57.8372 43.8968L48.8872 34.2668L50.4872 32.9668H50.4472Z" fill="#FEE012"/>
<path d="M48.8473 34.2673L57.7973 43.8973C57.2073 44.3773 56.6073 44.8973 56.0173 45.3873L47.0673 35.7273C47.6573 35.2273 48.2473 34.7273 48.8473 34.2373V34.2673Z" fill="#FEE112"/>
<path d="M47.0671 35.7266L56.0171 45.3566C55.3771 45.8966 54.7471 46.4466 54.1171 47.0166L45.1171 37.3866C45.7471 36.8266 46.3871 36.2766 47.0271 35.7266H47.0671Z" fill="#FEE212"/>
<path d="M45.1571 37.417L54.1571 47.047C53.2671 47.837 52.3871 48.637 51.5071 49.467L42.5571 39.847C43.4305 39.0137 44.3105 38.2037 45.1971 37.417H45.1571Z" fill="#FEE312"/>
<path d="M42.5172 39.8467L51.4672 49.4667C51.1372 49.7767 50.8072 50.0867 50.4672 50.4067C47.8772 52.8967 45.4672 55.4067 43.2272 57.9967L34.3472 48.3767C36.5805 45.8167 38.9905 43.2833 41.5772 40.7767L42.5772 39.8467H42.5172Z" fill="#FEE83C"/>
<path d="M34.3472 48.377L43.2972 57.9969C42.4972 58.9169 41.7272 59.837 40.9772 60.757L31.9772 51.127C32.7272 50.207 33.5072 49.297 34.3072 48.377H34.3472Z" fill="#FEE312"/>
<path d="M31.9672 51.127L40.9672 60.757C40.3872 61.467 39.8172 62.177 39.2672 62.887L30.2672 53.267C30.8172 52.557 31.3872 51.837 31.9672 51.127Z" fill="#FEE212"/>
<path d="M30.2672 53.2666L39.2672 62.8866C38.7772 63.5166 38.2672 64.1366 37.8472 64.7566L28.8472 55.1366C29.3072 54.5166 29.7872 53.8866 30.2672 53.2666Z" fill="#FEE112"/>
<path d="M28.8471 55.1367L37.8471 64.7567C37.3971 65.3667 36.9571 65.9767 36.5271 66.5767L27.5771 56.9567C28.0071 56.3467 28.4371 55.7467 28.8871 55.1367H28.8471Z" fill="#FEE012"/>
<path d="M27.5372 56.957L36.4872 66.577C36.0772 67.157 35.6772 67.737 35.2972 68.317L26.3472 58.727C26.7338 58.147 27.1338 57.567 27.5472 56.987L27.5372 56.957Z" fill="#FEDF12"/>
<path d="M26.3472 58.7266L35.3472 68.3466C34.9472 68.9266 34.5672 69.5066 34.2072 70.0866L25.2072 60.4666C25.5805 59.8866 25.9605 59.3066 26.3472 58.7266Z" fill="#FEDE12"/>
</g>
<mask id="mask1_152_13754" style="mask-type:luminance" maskUnits="userSpaceOnUse" x="16" y="58" width="20" height="46">
<path d="M35.2775 68.3366C25.3375 83.1466 22.2775 97.0166 28.5175 103.737L19.5175 94.1166C13.3475 87.3966 16.3475 73.5166 26.3475 58.7266L35.2775 68.3366Z" fill="white"/>
</mask>
<g mask="url(#mask1_152_13754)">
<path d="M26.3475 58.7266L35.3475 68.3466C34.9475 68.9266 34.5675 69.5066 34.2075 70.0866L25.2075 60.4666C25.5809 59.8866 25.9609 59.3066 26.3475 58.7266Z" fill="#FEDE12"/>
<path d="M25.1975 60.4365L34.1975 70.0565C33.8175 70.6465 33.4575 71.2265 33.0975 71.8165L24.1475 62.1865C24.4975 61.6065 24.8575 61.0265 25.2375 60.4365H25.1975Z" fill="#FEDD11"/>
<path d="M24.1075 62.1865L33.0575 71.8165C32.6975 72.4065 32.3575 72.9965 32.0575 73.5865L23.0575 63.9665C23.3975 63.3765 23.7475 62.7865 24.1075 62.1865Z" fill="#FEDC11"/>
<path d="M23.0575 63.9668L32.0575 73.5868C31.7175 74.1968 31.3775 74.7968 31.0575 75.3868L22.0575 65.7668C22.3775 65.1668 22.7108 64.5668 23.0575 63.9668Z" fill="#FEDB11"/>
<path d="M22.0674 65.7266L31.0674 75.3466C30.7374 75.9666 30.4174 76.5766 30.1174 77.1766L21.1174 67.5566C21.4174 66.9466 21.7274 66.3366 22.0574 65.7266H22.0674Z" fill="#FEDA11"/>
<path d="M21.1275 67.5967L30.1275 77.2167C29.8275 77.8267 29.5375 78.4367 29.2575 79.0367L20.3075 69.4067C20.5775 68.8067 20.8675 68.2067 21.1775 67.5967H21.1275Z" fill="#FED911"/>
<path d="M20.2574 69.4062L29.2074 79.0362C28.9674 79.5662 28.7274 80.1063 28.5074 80.6263L19.5074 71.0062C19.7274 70.4762 19.9574 69.9463 20.2074 69.4062H20.2574Z" fill="#FED811"/>
<path d="M19.5576 71.0068L28.5576 80.6268C28.3176 81.1868 28.0976 81.7468 27.8876 82.2968L18.8876 72.6668C19.0976 72.1168 19.3276 71.5668 19.5676 71.0068H19.5576Z" fill="#FED711"/>
<path d="M18.8776 72.667L27.8776 82.297C27.6176 82.967 27.3776 83.637 27.1576 84.297L18.1576 74.677C18.3776 74.017 18.6176 73.357 18.8776 72.677V72.667Z" fill="#FED611"/>
<path d="M18.1575 74.667L27.1575 84.287C26.9375 84.9537 26.7375 85.5937 26.5575 86.207L17.6075 76.587C17.7875 75.957 17.9875 75.317 18.1975 74.667H18.1575Z" fill="#FED511"/>
<path d="M17.5675 76.5869L26.5175 86.2069C26.3375 86.8402 26.1775 87.4602 26.0375 88.0669L17.0875 78.4469C17.2275 77.8402 17.3875 77.2202 17.5675 76.5869Z" fill="#FED411"/>
<path d="M17.0874 78.4463L26.0374 88.0663C25.8974 88.6863 25.7774 89.2863 25.6774 89.8763L16.6774 80.2563C16.7774 79.6563 16.9074 79.0563 17.0474 78.4463H17.0874Z" fill="#FED311"/>
<path d="M16.7174 80.2568L25.7174 89.8768C25.6074 90.4768 25.5274 91.0768 25.4574 91.6568L16.5074 82.0268C16.5674 81.4468 16.6574 80.8568 16.7574 80.2568H16.7174Z" fill="#FED211"/>
<path d="M16.4674 82.0264L25.4174 91.6564C25.3574 92.2464 25.3074 92.8364 25.2874 93.4064L16.3474 83.7864C16.3474 83.2064 16.4074 82.6264 16.4774 82.0264H16.4674Z" fill="#FED110"/>
<path d="M16.3476 83.7861L25.2976 93.4061C25.2976 93.9961 25.2976 94.5761 25.2976 95.1361L16.3476 85.5061C16.3176 84.9332 16.3176 84.3591 16.3476 83.7861Z" fill="#FED010"/>
<path d="M16.3475 85.5068L25.2975 95.1368C25.2975 95.7368 25.3775 96.3268 25.4575 96.9068L16.4575 87.2768C16.3726 86.6901 16.3192 86.0993 16.2975 85.5068H16.3475Z" fill="#FECF10"/>
<path d="M16.4974 87.2764L25.4974 96.9064C25.5847 97.5124 25.7049 98.1133 25.8575 98.7064L16.9074 89.0864C16.7443 88.4924 16.624 87.8875 16.5475 87.2764H16.4974Z" fill="#FECE10"/>
<path d="M16.8575 89.0869L25.8075 98.7069C25.9822 99.3551 26.2028 99.99 26.4675 100.607L17.5175 90.9769C17.244 90.3669 17.0232 89.7346 16.8575 89.0869Z" fill="#FECD10"/>
<path d="M17.5175 90.9766L26.4674 100.607C26.7925 101.342 27.1912 102.042 27.6574 102.697L18.7074 93.0766C18.2338 92.4231 17.8346 91.7187 17.5175 90.9766Z" fill="#FECC10"/>
<path d="M18.7073 93.0762L27.6573 102.696C27.9234 103.047 28.2106 103.381 28.5174 103.696L19.5174 94.0762C19.2133 93.761 18.9294 93.427 18.6674 93.0762H18.7073Z" fill="#FECB10"/>
</g>
<mask id="mask2_152_13754" style="mask-type:luminance" maskUnits="userSpaceOnUse" x="71" y="15" width="38" height="15">
<path d="M80.1875 29.7261C77.2008 26.5261 74.2008 23.3194 71.1875 20.1061C82.9675 14.8961 93.2675 14.1061 98.7675 19.1061C99.0075 19.3261 99.2375 19.5461 99.4575 19.7861L108.457 29.4061C108.237 29.1761 108.008 28.9461 107.758 28.7261C102.268 23.7861 91.9675 24.5461 80.1875 29.7261Z" fill="white"/>
</mask>
<g mask="url(#mask2_152_13754)">
<path d="M99.4976 19.7764L108.498 29.3964C108.278 29.1664 108.048 28.9364 107.798 28.7164C105.319 26.6475 102.206 25.493 98.9776 25.4464L90.0276 15.8164C93.2563 15.8683 96.3695 17.026 98.8476 19.0964C99.0876 19.3164 99.3176 19.5364 99.5376 19.7764H99.4976Z" fill="#FECB10"/>
<path d="M89.9876 15.8162L98.9376 25.4462C97.8787 25.3764 96.8164 25.3764 95.7576 25.4462L86.7576 15.8162C87.8199 15.7514 88.8852 15.7514 89.9476 15.8162H89.9876Z" fill="#FECC10"/>
<path d="M86.7975 15.8359L95.7975 25.4659C94.9275 25.5259 94.0275 25.6259 93.1075 25.7659L84.1075 16.1459C85.0275 15.9959 85.9275 15.8959 86.7975 15.8359Z" fill="#FECD10"/>
<path d="M84.1075 16.1465L93.1075 25.7665C92.3075 25.8865 91.4875 26.0465 90.6575 26.2265L81.6575 16.6065C82.4875 16.4165 83.3075 16.2665 84.1075 16.1465Z" fill="#FECE10"/>
<path d="M81.6577 16.6064L90.6577 26.2264C89.8877 26.3964 89.1077 26.5964 88.3177 26.8164L79.3477 17.1864C80.1377 16.9664 80.9076 16.7764 81.6776 16.6064H81.6577Z" fill="#FECF10"/>
<path d="M79.3476 17.1865L88.2976 26.8165C87.5576 27.0165 86.7976 27.2465 86.0376 27.4965L77.0376 17.8765C77.8076 17.6265 78.5576 17.3965 79.3076 17.1865H79.3476Z" fill="#FED010"/>
<path d="M77.0576 17.876L86.0576 27.496C85.3242 27.736 84.5842 27.996 83.8376 28.276L74.8876 18.646C75.6276 18.376 76.3676 18.116 77.0976 17.876H77.0576Z" fill="#FED110"/>
<path d="M74.8474 18.6465L83.7975 28.2765C83.0875 28.5465 82.3574 28.8265 81.6274 29.1365L72.6274 19.5065C73.3574 19.2065 74.0874 18.9165 74.8074 18.6465H74.8474Z" fill="#FED211"/>
<path d="M72.6675 19.5059L81.6675 29.1359C80.9975 29.4059 80.3275 29.6959 79.6675 30.0059L70.7175 20.3859C71.3875 20.0759 72.0675 19.7859 72.7175 19.5059H72.6675Z" fill="#FED311"/>
</g>
<path d="M99.547 19.7261C90.547 14.6161 70.057 22.6361 50.937 39.0061C29.067 57.7361 13.697 83.196 20.367 94.486C27.987 107.386 58.457 94.326 82.987 68.1761C103.767 46.0761 109.507 25.4261 99.547 19.7261Z" fill="#F1B400"/>
<path d="M83.9271 30.8359L92.8771 40.4659L85.7371 47.3359L76.7871 37.7159L83.9271 30.8359Z" fill="#CF8E00"/>
<path d="M39.9574 73.207L43.2974 76.807L35.9774 84.457L32.3374 80.547L39.9574 73.207Z" fill="#CF8E00"/>
<path d="M32.3375 80.5459L35.9775 84.4559L32.5875 81.4159L28.9575 77.5059L32.3375 80.5459Z" fill="#FFC628"/>
<path d="M70.5572 66.3963C70.671 65.678 70.6439 64.9443 70.4772 64.2363L65.7972 59.2363C66.5272 62.0863 64.6872 65.0663 63.0272 67.2363C60.6021 70.4318 57.6004 73.1451 54.1772 75.2363C51.9472 76.6663 49.0472 77.8363 46.3472 77.5263L51.0272 82.5263C55.3772 83.0163 59.6872 80.0063 62.8172 77.3263C65.9472 74.6463 69.9072 70.7263 70.5572 66.3963Z" fill="#CF8E00"/>
<path d="M89.5174 35.8662L94.2774 41.0362L86.0974 48.9262L81.3374 43.7462L89.5174 35.8662Z" fill="#CF8E00"/>
<path d="M46.3475 77.4668L51.0275 82.4568L42.6175 90.5668L37.9375 85.5768L46.3475 77.4668Z" fill="#CF8E00"/>
<path d="M37.9371 85.5761L42.6171 90.5661L39.2372 87.5261L34.5571 82.5361L37.9371 85.5761Z" fill="#FFC628"/>
<path d="M86.1271 50.0066C86.1571 49.6505 86.1571 49.2926 86.1271 48.9366L81.3471 43.7266C81.6871 47.8166 78.1871 51.6366 75.4571 54.2066C72.8971 56.6066 69.4571 59.1366 65.8071 59.2066L70.6071 64.3866C74.1571 64.3066 77.5071 61.8966 80.0071 59.5966C82.6871 57.1766 85.7771 53.8266 86.1271 50.0066Z" fill="#CF8E00"/>
<mask id="mask3_152_13754" style="mask-type:luminance" maskUnits="userSpaceOnUse" x="9" y="10" width="115" height="109">
<path d="M109.967 10.0361L118.967 19.6661C130.037 31.5661 117.967 61.2361 91.2274 86.9761C63.8574 113.356 31.4974 125.606 18.9574 114.336C18.6527 114.065 18.3623 113.778 18.0874 113.476L9.0874 103.846C9.36571 104.148 9.65944 104.435 9.96741 104.706C22.5074 115.976 54.8574 103.706 82.2274 77.3561C108.937 51.6161 121.037 21.9361 109.967 10.0361Z" fill="white"/>
</mask>
<g mask="url(#mask3_152_13754)">
<path d="M109.967 10.0361L118.967 19.6661C119.349 20.0822 119.706 20.5196 120.037 20.9761L111.087 11.3561C110.756 10.8938 110.395 10.453 110.007 10.0361H109.967Z" fill="#FECB10"/>
<path d="M111.047 11.3564L119.997 20.9764C120.591 21.8049 121.097 22.693 121.507 23.6264L112.507 13.9964C112.103 13.0656 111.6 12.1806 111.007 11.3564H111.047Z" fill="#FECC10"/>
<path d="M112.547 13.9961L121.547 23.6261C121.884 24.4008 122.161 25.1997 122.377 26.0161L113.377 16.3961C113.167 15.5746 112.89 14.7719 112.547 13.9961Z" fill="#FECD10"/>
<path d="M113.347 16.3965L122.347 26.0165C122.545 26.7669 122.698 27.5282 122.807 28.2965L113.807 18.6665C113.702 17.9008 113.549 17.1426 113.347 16.3965Z" fill="#FECE10"/>
<path d="M113.837 18.666L122.837 28.296C122.937 29.016 122.997 29.766 123.037 30.526L114.037 20.906C114.037 20.136 113.937 19.396 113.837 18.666Z" fill="#FECF10"/>
<path d="M114.037 20.9062L123.037 30.5263C123.037 31.2363 123.037 31.9663 123.037 32.7063L114.037 23.0863C114.037 22.3363 114.037 21.6162 114.037 20.9062Z" fill="#FED010"/>
<path d="M114.037 23.0859L123.037 32.7059C123.037 33.4259 122.947 34.1659 122.867 34.9159L113.867 25.2859C113.947 24.5359 113.997 23.8059 114.027 23.0859H114.037Z" fill="#FED110"/>
<path d="M113.877 25.2861L122.877 34.9161C122.797 35.6461 122.687 36.3961 122.557 37.1561L113.557 27.5361C113.687 26.7761 113.797 26.0261 113.877 25.2861Z" fill="#FED211"/>
<path d="M113.557 27.5361L122.557 37.1561C122.427 37.9061 122.277 38.6661 122.097 39.4361L113.147 29.8161C113.317 29.0361 113.477 28.2861 113.607 27.5361H113.557Z" fill="#FED311"/>
<path d="M113.097 29.8164L122.047 39.4364C121.867 40.2064 121.667 40.9864 121.437 41.7864L112.487 32.1564C112.717 31.3664 112.917 30.5864 113.097 29.8164Z" fill="#FED411"/>
<path d="M112.487 32.1562L121.437 41.7862C121.217 42.5762 120.967 43.3863 120.687 44.2063L111.737 34.5762C112.007 33.7662 112.257 32.9563 112.487 32.1562Z" fill="#FED511"/>
<path d="M111.737 34.5762L120.687 44.2062C120.417 45.0362 120.107 45.8762 119.787 46.7262L110.787 37.0962C111.117 36.2462 111.417 35.4062 111.697 34.5762H111.737Z" fill="#FED611"/>
<path d="M110.828 37.0957L119.828 46.7257C119.558 47.4157 119.278 48.1157 118.978 48.8157L109.978 39.1957C110.278 38.4857 110.558 37.7857 110.828 37.0957Z" fill="#FED711"/>
<path d="M109.977 39.1965L118.977 48.8165C118.697 49.4865 118.397 50.1565 118.087 50.8165L109.137 41.1865C109.437 40.5165 109.737 39.8465 110.017 39.1865L109.977 39.1965Z" fill="#FED811"/>
<path d="M109.097 41.2061L118.047 50.8361C117.697 51.5861 117.337 52.3561 116.957 53.1161L107.957 43.496C108.337 42.726 108.707 41.9661 109.057 41.2061H109.097Z" fill="#FED911"/>
<path d="M107.997 43.4961L116.997 53.1161C116.617 53.8861 116.217 54.6561 115.807 55.4261L106.807 45.8061C107.217 45.0361 107.617 44.2561 107.997 43.4961Z" fill="#FEDA11"/>
<path d="M106.807 45.8057L115.807 55.4257C115.397 56.1857 114.987 56.9357 114.547 57.6957L105.547 48.0657C105.977 47.3157 106.397 46.5557 106.797 45.8057H106.807Z" fill="#FEDB11"/>
<path d="M105.557 48.0664L114.557 57.6964C114.137 58.4364 113.697 59.1864 113.247 59.9364L104.247 50.3064C104.707 49.5564 105.147 48.8164 105.567 48.0664H105.557Z" fill="#FEDC11"/>
<path d="M104.237 50.3057L113.237 59.9357C112.787 60.6657 112.337 61.4057 111.857 62.1457L102.857 52.5157C103.327 51.7757 103.787 51.0457 104.227 50.3057H104.237Z" fill="#FEDD11"/>
<path d="M102.867 52.5166L111.867 62.1466C111.407 62.8766 110.867 63.6066 110.427 64.3466L101.427 54.7266C101.927 53.9866 102.428 53.2566 102.878 52.5166H102.867Z" fill="#FEDE12"/>
<path d="M101.418 54.7266L110.418 64.3466C109.928 65.0766 109.417 65.8166 108.897 66.5566L99.9475 56.9266C100.468 56.1866 100.947 55.4566 101.457 54.7266H101.418Z" fill="#FEDF12"/>
<path d="M99.9075 56.9258L108.858 66.5558C108.318 67.3158 107.768 68.0858 107.198 68.8458L98.1975 59.2258C98.7575 58.4558 99.3175 57.6958 99.8575 56.9258H99.9075Z" fill="#FEE012"/>
<path d="M98.2475 59.2266L107.248 68.8466C106.668 69.6366 106.068 70.4266 105.458 71.2166L96.4575 61.5966C97.0642 60.8032 97.6642 60.0132 98.2575 59.2266H98.2475Z" fill="#FEE112"/>
<path d="M96.4474 61.5957L105.447 71.2157C104.747 72.1157 104.037 73.0157 103.297 73.9057L94.2974 64.2857C95.0274 63.3857 95.7473 62.4857 96.4373 61.5957H96.4474Z" fill="#FEE212"/>
<path d="M94.3474 64.2861L103.347 73.9061C102.347 75.0661 101.427 76.2261 100.417 77.3861L91.3474 67.7261C92.3541 66.5661 93.3341 65.4061 94.2874 64.2461L94.3474 64.2861Z" fill="#FEE312"/>
<path d="M91.3473 67.7266L100.347 77.3466C97.5273 80.5766 94.4773 83.7866 91.2073 86.9366L89.9673 88.1266L80.9673 78.4966L82.2073 77.3166C85.4773 74.1666 88.5273 70.9566 91.3473 67.7266Z" fill="#FEE83C"/>
<path d="M80.9875 78.5361L89.9875 88.1661C88.8742 89.2061 87.7608 90.2228 86.6475 91.2161L77.6475 81.5961C78.7675 80.5961 79.8875 79.5961 80.9875 78.5361Z" fill="#FEE312"/>
<path d="M77.6473 81.5957L86.6473 91.2157C85.8473 91.9257 85.0473 92.6257 84.2373 93.3157L75.2373 83.6957C76.0373 83.029 76.8373 82.329 77.6373 81.5957H77.6473Z" fill="#FEE212"/>
<path d="M75.2473 83.7266L84.2473 93.3466C83.5073 93.9866 82.7573 94.6066 82.0073 95.2266L73.0073 85.6066L75.2473 83.7266Z" fill="#FEE112"/>
<path d="M72.9974 85.5762L81.9974 95.1962C81.3174 95.7562 80.6474 96.2962 79.9974 96.8362L70.9974 87.2062C71.6774 86.6762 72.3574 86.1262 72.9974 85.5762Z" fill="#FEE012"/>
<path d="M70.9674 87.2061L79.9674 96.8361C79.2974 97.3661 78.6374 97.8361 77.9674 98.3961L68.9674 88.7661C69.6374 88.2561 70.3074 87.7661 70.9674 87.2061Z" fill="#FEDF12"/>
<path d="M68.9673 88.7266L77.9673 98.3566L76.0273 99.8166L67.0273 90.1866C67.6773 89.7066 68.3273 89.1866 68.9673 88.7266Z" fill="#FEDE12"/>
<path d="M67.0274 90.2266L76.0274 99.8566C75.3607 100.337 74.7107 100.807 74.0774 101.267L65.0774 91.6466L67.0274 90.2266Z" fill="#FEDD11"/>
<path d="M65.0775 91.6465L74.0775 101.266C73.4175 101.736 72.7575 102.206 72.0775 102.656L63.1274 93.0365L65.1274 91.6465H65.0775Z" fill="#FEDC11"/>
<path d="M63.0974 93.0361L72.0474 102.656L70.0474 103.996L61.0474 94.3661C61.7074 93.9361 62.3774 93.4861 63.0474 93.0361H63.0974Z" fill="#FEDB11"/>
<path d="M61.1075 94.3662L70.1075 103.996L68.0175 105.346L59.0175 95.7262C59.7175 95.2862 60.4175 94.8262 61.1075 94.3662Z" fill="#FEDA11"/>
<path d="M59.0175 95.7266L68.0175 105.347C67.3175 105.787 66.6275 106.217 65.9275 106.637L56.9275 97.0166C57.6175 96.5966 58.3175 96.1666 59.0075 95.7266H59.0175Z" fill="#FED911"/>
<path d="M56.9375 97.0166L65.9375 106.637C65.1975 107.097 64.4475 107.537 63.7075 107.967L54.7075 98.3366L56.9475 97.0166H56.9375Z" fill="#FED811"/>
<path d="M54.6974 98.3359L63.6974 107.966L61.4474 109.226L52.4974 99.6059C53.2374 99.1959 53.9875 98.7759 54.7375 98.3359H54.6974Z" fill="#FED711"/>
<path d="M52.4574 99.6064L61.4074 109.226C60.6074 109.666 59.8174 110.086 59.0274 110.496L50.0774 100.866L52.4574 99.6064Z" fill="#FED611"/>
<path d="M50.0774 100.866L59.0274 110.496C58.2474 110.896 57.4774 111.286 56.6974 111.656L47.6974 102.036L50.0274 100.866H50.0774Z" fill="#FED511"/>
<path d="M47.7474 102.036L56.7474 111.656C55.9874 112.026 55.2374 112.376 54.4874 112.716L45.4874 103.096C46.2374 102.756 46.9974 102.396 47.7574 102.036H47.7474Z" fill="#FED411"/>
<path d="M45.4775 103.096L54.4775 112.716C53.6275 113.106 52.7775 113.466 51.9375 113.816L42.9375 104.196C43.7775 103.846 44.6275 103.476 45.4775 103.096Z" fill="#FED311"/>
<path d="M42.9374 104.196L51.9374 113.816C51.0074 114.206 50.0974 114.566 49.1874 114.896L40.2374 105.276C41.1374 104.936 42.0574 104.576 42.9774 104.196H42.9374Z" fill="#FED211"/>
<path d="M40.1975 105.276L49.1475 114.896C48.2075 115.256 47.2775 115.576 46.3575 115.896L37.4075 106.276C38.3275 105.976 39.2575 105.646 40.1975 105.276Z" fill="#FED110"/>
<path d="M37.4073 106.256L46.3573 115.876C45.3973 116.196 44.4473 116.486 43.5073 116.746L34.5073 107.126C35.4473 106.856 36.3973 106.576 37.3673 106.256H37.4073Z" fill="#FED010"/>
<path d="M34.5474 107.126L43.5474 116.746C42.5474 117.026 41.5474 117.266 40.5474 117.476L31.5974 107.856C32.5974 107.646 33.5474 107.396 34.5374 107.126H34.5474Z" fill="#FECF10"/>
<path d="M31.6073 107.856L40.5573 117.476C39.5573 117.716 38.4773 117.906 37.4673 118.066L28.4673 108.436C29.4673 108.286 30.4673 108.086 31.5673 107.856H31.6073Z" fill="#FECE10"/>
<path d="M28.5074 108.437L37.5074 118.067C36.3474 118.247 35.2174 118.367 34.1174 118.447L25.1174 108.817C26.2174 108.747 27.3474 108.617 28.5074 108.437Z" fill="#FECD10"/>
<path d="M25.1174 108.816L34.1174 118.446C32.7853 118.525 31.4496 118.525 30.1174 118.446L21.1174 108.816C22.4493 108.905 23.7856 108.905 25.1174 108.816Z" fill="#FECC10"/>
<path d="M21.0974 108.846L30.0974 118.476C25.5774 118.206 21.7674 116.856 18.9574 114.336C18.6527 114.064 18.3623 113.777 18.0874 113.476L9.0874 103.846C9.36571 104.147 9.65944 104.434 9.96741 104.706C12.7774 107.236 16.5774 108.576 21.0974 108.846Z" fill="#FECB10"/>
</g>
<path d="M109.098 9.18638C121.638 20.4564 109.608 50.9664 82.2275 77.3564C54.8475 103.746 22.5075 115.976 9.9675 104.726C-2.5725 93.4764 9.4475 62.9464 36.8175 36.5664C64.1875 10.1864 96.5575 -2.08362 109.098 9.18638ZM20.2475 94.7964C30.1875 103.726 55.8275 94.0164 77.5175 73.1164C99.2075 52.2164 108.747 28.0264 98.8075 19.1164C88.8675 10.2064 63.2275 19.8964 41.5275 40.7964C19.8275 61.6964 10.3175 85.8864 20.2475 94.7964Z" fill="#FED110"/>
<path d="M65.7973 59.2457C66.4673 61.8657 64.9973 65.7557 59.8773 70.6857C54.5973 75.7757 49.7873 77.8557 46.3473 77.4657L37.9373 85.5757L34.5573 82.5757L42.1673 75.2357L39.9573 73.2357L32.3473 80.5457L28.9673 77.5457L36.5773 70.2057L34.7673 68.5757L71.5973 33.0857L73.4073 34.7257L80.5373 27.8457L83.9273 30.8457L76.7873 37.7257L78.9973 39.7257L86.1373 32.8457L89.5173 35.8457L81.3473 43.7257C81.5673 46.3857 79.9673 49.8557 75.7073 53.9657C72.1273 57.4257 68.5173 59.1857 65.7973 59.2457ZM48.4973 68.9457C50.0873 70.3657 52.2973 71.1057 56.6473 66.9457C60.9973 62.7857 59.9973 60.6257 58.3373 59.1357L54.8073 55.9557L44.8073 65.6257L48.5273 68.9757L48.4973 68.9457ZM68.9373 42.3157L60.3473 50.6457L63.7073 53.6457C65.0573 54.8657 67.0773 55.6457 70.8073 52.0157C74.5373 48.3857 73.8073 46.5957 72.3573 45.3157L68.9873 42.3157H68.9373Z" fill="#FFCD2A"/>
</g>
<defs>
<filter id="filter0_f_152_13754" x="0.2" y="0.2" width="127.637" height="123.106" filterUnits="userSpaceOnUse" color-interpolation-filters="sRGB">
<feFlood flood-opacity="0" result="BackgroundImageFix"/>
<feBlend mode="normal" in="SourceGraphic" in2="BackgroundImageFix" result="shape"/>
<feGaussianBlur stdDeviation="2.4" result="effect1_foregroundBlur_152_13754"/>
</filter>
</defs>
</svg>
